<svg xmlns="http://www.w3.org/2000/svg" width="1600" height="900" viewBox="0 0 1600 900" fill="none">
  <defs>
    <linearGradient id="bg" x1="0" y1="0" x2="1600" y2="900" gradientUnits="userSpaceOnUse">
      <stop stop-color="#0A2745"/>
      <stop offset="0.55" stop-color="#0D4F8B"/>
      <stop offset="1" stop-color="#2E6DA4"/>
    </linearGradient>
    <linearGradient id="panel" x1="0" y1="0" x2="0" y2="1">
      <stop stop-color="#FFFFFF" stop-opacity="0.14"/>
      <stop offset="1" stop-color="#FFFFFF" stop-opacity="0.04"/>
    </linearGradient>
  </defs>
  <rect width="1600" height="900" fill="url(#bg)"/>
  <g opacity="0.18" stroke="#FFFFFF" stroke-width="2">
    <path d="M120 720H1480"/>
    <path d="M180 720V420"/>
    <path d="M1420 720V420"/>
    <path d="M180 420H1420"/>
    <path d="M420 420V260"/>
    <path d="M1180 420V260"/>
    <path d="M420 260H1180"/>
  </g>
  <rect x="520" y="470" width="560" height="180" rx="18" fill="url(#panel)" stroke="#FFFFFF" stroke-opacity="0.18"/>
  <g fill="#FFFFFF" opacity="0.92">
    <rect x="560" y="520" width="220" height="10" rx="5"/>
    <rect x="560" y="545" width="160" height="10" rx="5"/>
    <rect x="560" y="570" width="220" height="10" rx="5"/>
    <rect x="560" y="595" width="120" height="10" rx="5"/>
  </g>
  <text x="800" y="360" fill="#FFFFFF" font-family="Inter, Arial, sans-serif" font-size="54" font-weight="700" text-anchor="middle">Haas VF-7/50</text>
  <text x="800" y="420" fill="#FFFFFF" fill-opacity="0.82" font-family="Inter, Arial, sans-serif" font-size="28" font-weight="600" text-anchor="middle" letter-spacing="6">CNC VERTICAL MACHINING CENTER</text>
</svg>
